<?xml version="1.0" encoding="UTF-8"?>
<!DOCTYPE svg PUBLIC "-//W3C//DTD SVG 1.0//EN" "http://www.w3.org/TR/2001/REC-SVG-20010904/DTD/svg10.dtd">
<!-- Creator: CorelDRAW 2020 (64-Bit) -->
<svg xmlns="http://www.w3.org/2000/svg" xml:space="preserve" width="13.3333in" height="5in" version="1.0" style="shape-rendering:geometricPrecision; text-rendering:geometricPrecision; image-rendering:optimizeQuality; fill-rule:evenodd; clip-rule:evenodd"
viewBox="0 0 13333.33 5000"
 xmlns:xlink="http://www.w3.org/1999/xlink"
 xmlns:xodm="http://www.corel.com/coreldraw/odm/2003">
 <defs>
  <style type="text/css">
   <![CDATA[
    .fil0 {fill:none}
    .fil2 {fill:#00A651}
    .fil1 {fill:#474747;fill-rule:nonzero}
   ]]>
  </style>
 </defs>
 <g id="Layer_x0020_1">
  <metadata id="CorelCorpID_0Corel-Layer"/>
  <rect class="fil0" y="-0" width="13333.33" height="5000"/>
  <g id="_1822408074544">
   <path class="fil1" d="M5706.96 1926.36l419.34 0 -131.14 1470.24 742.52 0 -30.47 341.67 -1161.85 0 161.61 -1811.91z"/>
   <path class="fil1" d="M5036.85 1926.36l419.33 0 -161.61 1811.91 -419.33 0 161.61 -1811.91z"/>
   <path class="fil1" d="M3878.34 2262.87l-42.71 478.85 782.47 0 -30.01 336.5 -782.47 0 -58.87 660.05 -419.33 0 161.61 -1811.91 1313.12 0 -30.01 336.5 -893.79 0z"/>
  </g>
  <g id="_1822408074832">
   <path class="fil2" d="M2727.38 1926.36l-1068.78 0 471.54 760.54 597.24 -760.54z"/>
   <path class="fil2" d="M2818.4 1261.73l-1132.92 0 499.86 806.18 633.06 -806.18z"/>
  </g>
  <g id="_1822408075648">
   <path class="fil1" d="M7783.45 1926.36c160.47,0 297.44,26.8 410.86,80.24 113.42,53.47 197.73,129.46 252.75,227.79 55.06,98.32 76.63,214.83 64.62,349.46 -11.85,132.85 -54.17,248.93 -126.84,348.14 -72.64,99.18 -170.51,175.17 -293.38,227.75 -122.88,52.61 -264.65,78.96 -425.06,78.96l-252.65 0 -44.56 499.57 -419.33 0 75.03 -841.24 648.67 0c125.98,0 224.23,-27.26 294.58,-81.55 70.38,-54.29 110.13,-131.57 119.05,-231.63 9.08,-101.84 -16.8,-179.98 -77.5,-234.27 -60.66,-54.29 -154.19,-81.55 -280.03,-81.55l-648.67 0 30.47 -341.67 671.98 0z"/>
   <path class="fil1" d="M9648.19 3350.01l-0.13 0 -328.91 -1012.07 -509.5 1012.07 -2.7 0 -195.1 388.26 -429.66 0 969.17 -1811.91 414.17 0 648.56 1811.91 -439.86 0 -70.59 -217.26 -55.45 -171z"/>
   <path class="fil1" d="M10837.62 3280.13l-40.86 458.14 -416.72 0 161.61 -1811.9 416.72 0 -15.87 177.9 -59.63 668.53 -45.25 507.34z"/>
   <path class="fil1" d="M11377.21 2832.3l949.68 -905.94 -489.22 0 -955.77 905.96 794.16 905.94 489.22 0 -788.07 -905.96z"/>
  </g>
  <g id="_1822408079584">
   <path class="fil1" d="M2897.89 1926.36l452.98 0 -719.07 905.96 601.46 905.94 -484.05 0c-197.19,-317.57 -388.97,-595.99 -585.61,-905.94 244.28,-297.05 490,-608.88 734.28,-905.96z"/>
   <path class="fil1" d="M1376.09 3738.28l-452.98 0 703.16 -896.16 -585.54 -915.74 484.04 0c197.19,317.57 378.11,595.99 574.75,905.94 -244.28,297.05 -479.15,608.88 -723.43,905.96z"/>
  </g>
 </g>
</svg>
